<svg xmlns="http://www.w3.org/2000/svg" xmlns:xlink="http://www.w3.org/1999/xlink" width="240" zoomAndPan="magnify" viewBox="0 0 180 50.999998" height="68" preserveAspectRatio="xMidYMid meet" version="1.0"><defs><g/></defs><g fill="#ffffff" fill-opacity="1"><g transform="translate(9.900503, 34.498285)"><g><path d="M 5.402344 0.207031 C 6.253906 0.207031 8 -0.308594 8.339844 -1.742188 L 8.613281 0 L 10.835938 0 L 10.835938 -11.179688 C 10.835938 -14.1875 8.304688 -16.613281 5.402344 -16.613281 C 4.066406 -16.613281 2.460938 -15.859375 1.300781 -14.800781 L 2.804688 -12.511719 C 3.726562 -13.398438 4.71875 -13.808594 5.402344 -13.808594 C 6.871094 -13.808594 8.066406 -12.613281 8.066406 -11.179688 L 8.136719 -9.742188 C 7.757812 -10.835938 6.425781 -11.554688 5.332031 -11.554688 C 2.1875 -11.554688 0 -9.09375 0 -6.222656 L 0 -5.265625 C 0 -2.324219 2.460938 0.207031 5.402344 0.207031 Z M 2.769531 -5.265625 L 2.769531 -6.222656 C 2.769531 -7.691406 3.964844 -8.851562 5.402344 -8.851562 C 6.871094 -8.851562 8.066406 -7.894531 8.066406 -6.527344 L 8.066406 -4.855469 C 8.066406 -3.625 6.699219 -2.5625 5.402344 -2.5625 C 3.964844 -2.5625 2.769531 -3.792969 2.769531 -5.265625 Z M 2.769531 -5.265625 "/></g></g></g><g fill="#ffffff" fill-opacity="1"><g transform="translate(26.065584, 34.498285)"><g><path d="M 1.539062 -21.773438 C 0.648438 -21.773438 -0.136719 -21.089844 -0.136719 -20.03125 C -0.136719 -19.039062 0.648438 -18.320312 1.539062 -18.320312 C 2.460938 -18.320312 3.316406 -19.039062 3.316406 -20.03125 C 3.316406 -21.089844 2.460938 -21.773438 1.539062 -21.773438 Z M 2.941406 0 L 2.941406 -16.441406 L 0.207031 -16.441406 L 0.207031 0 Z M 2.941406 0 "/></g></g></g><g fill="#ffffff" fill-opacity="1"><g transform="translate(34.165697, 34.498285)"><g><path d="M 2.734375 0 L 2.734375 -11.210938 C 2.734375 -12.648438 3.898438 -13.878906 5.367188 -13.878906 C 6.871094 -13.878906 8.066406 -12.648438 8.066406 -11.210938 L 8.066406 0 L 10.800781 0 L 10.800781 -11.210938 C 10.800781 -14.765625 16.167969 -14.9375 16.132812 -11.210938 L 16.132812 0 L 18.867188 0 L 18.867188 -11.210938 C 18.867188 -14.253906 16.476562 -16.648438 13.535156 -16.648438 C 11.964844 -16.648438 10.289062 -16.03125 9.46875 -13.914062 C 8.613281 -16.03125 6.800781 -16.679688 5.433594 -16.648438 C 4.445312 -16.613281 3.179688 -16.167969 2.496094 -14.835938 L 2.152344 -16.441406 L 0 -16.441406 L 0 0 Z M 2.734375 0 "/></g></g></g><g fill="#ffffff" fill-opacity="1"><g transform="translate(59.341465, 34.498285)"><g><path d="M 10.015625 -10.390625 L 0.0351562 -10.390625 C -0.207031 -10.390625 -0.207031 -10.082031 0.0351562 -10.082031 L 10.015625 -10.082031 C 10.253906 -10.082031 10.253906 -10.390625 10.015625 -10.390625 Z M 10.015625 -10.390625 "/></g></g></g><g fill="#ffffff" fill-opacity="1"><g transform="translate(74.993937, 34.498285)"><g><path d="M 8.785156 -14.527344 C 6.324219 -18.21875 -0.101562 -16.75 -0.0703125 -11.929688 C -0.0703125 -9.230469 1.949219 -8.238281 4.511719 -8.167969 C 6.734375 -8.101562 8.921875 -6.871094 8.921875 -4.203125 C 8.921875 0.511719 2.289062 1.195312 0.171875 -2.152344 C 0.0351562 -2.394531 -0.273438 -2.1875 -0.136719 -1.984375 C 2.015625 1.605469 9.261719 0.855469 9.230469 -4.203125 C 9.230469 -7.042969 6.9375 -8.441406 4.546875 -8.511719 C 2.152344 -8.578125 0.207031 -9.46875 0.238281 -11.894531 C 0.238281 -13.160156 0.71875 -14.152344 1.402344 -14.835938 C 3.28125 -16.816406 6.734375 -16.921875 8.476562 -14.355469 C 8.613281 -14.152344 8.886719 -14.355469 8.785156 -14.527344 Z M 8.785156 -14.527344 "/></g></g></g><g fill="#ffffff" fill-opacity="1"><g transform="translate(89.108599, 34.498285)"><g><path d="M 7.210938 -8.75 L 4.855469 -0.855469 C 4.582031 -0.0351562 3.964844 -0.0351562 3.828125 -0.855469 L 0.890625 -16.375 C 0.855469 -16.679688 0.511719 -16.613281 0.546875 -16.339844 L 3.453125 -0.820312 C 3.65625 0.445312 4.855469 0.410156 5.128906 -0.785156 L 7.589844 -8.648438 C 7.757812 -9.367188 8.375 -9.367188 8.613281 -8.648438 L 11.007812 -0.785156 C 11.382812 0.410156 12.511719 0.445312 12.683594 -0.820312 L 15.65625 -16.339844 C 15.722656 -16.613281 15.347656 -16.679688 15.28125 -16.375 L 12.410156 -0.855469 C 12.203125 -0.0351562 11.621094 -0.0351562 11.382812 -0.855469 L 8.921875 -8.75 C 8.613281 -9.878906 7.519531 -9.878906 7.210938 -8.75 Z M 7.210938 -8.75 "/></g></g></g><g fill="#ffffff" fill-opacity="1"><g transform="translate(108.451825, 34.498285)"><g><path d="M 4.855469 0.238281 C 6.664062 0.207031 8.785156 -0.546875 9.433594 -2.394531 L 9.433594 -0.0351562 C 9.433594 0.171875 9.742188 0.171875 9.742188 -0.0351562 L 9.742188 -11.589844 C 9.742188 -14.324219 7.484375 -16.476562 4.855469 -16.476562 C 3.65625 -16.476562 2.53125 -16.03125 1.675781 -15.28125 C 1.539062 -15.109375 1.742188 -14.871094 1.914062 -15.007812 C 2.734375 -15.722656 3.726562 -16.167969 4.855469 -16.167969 C 7.316406 -16.167969 9.433594 -14.117188 9.433594 -11.589844 L 9.433594 -8.167969 C 8.820312 -10.015625 6.664062 -10.9375 4.855469 -10.9375 C 2.1875 -10.9375 0 -8.714844 0 -6.050781 L 0 -4.71875 C 0 -2.015625 2.1875 0.238281 4.855469 0.238281 Z M 0.308594 -4.71875 L 0.308594 -6.050781 C 0.308594 -8.546875 2.394531 -10.632812 4.855469 -10.632812 C 7.316406 -10.5625 9.398438 -9.195312 9.398438 -6.664062 L 9.398438 -3.761719 C 9.398438 -1.332031 7.109375 -0.136719 4.855469 -0.101562 C 2.394531 -0.101562 0.308594 -2.222656 0.308594 -4.71875 Z M 0.308594 -4.71875 "/></g></g></g><g fill="#ffffff" fill-opacity="1"><g transform="translate(123.660049, 34.498285)"><g><path d="M 0.308594 0.0703125 L 0.308594 -12.375 C 0.308594 -15.519531 3.726562 -16.816406 6.253906 -15.757812 C 6.496094 -15.65625 6.597656 -15.964844 6.390625 -16.066406 C 4.308594 -16.988281 1.195312 -16.238281 0.308594 -13.945312 L 0.308594 -16.167969 C 0.308594 -16.40625 0 -16.40625 0 -16.167969 L 0 0.0703125 C 0 0.273438 0.308594 0.273438 0.308594 0.0703125 Z M 0.308594 0.0703125 "/></g></g></g><g fill="#ffffff" fill-opacity="1"><g transform="translate(134.289007, 34.498285)"><g><path d="M 4.785156 0.171875 C 7.519531 0.171875 9.535156 -2.015625 9.535156 -4.683594 L 9.535156 -16.375 C 9.535156 -16.613281 9.230469 -16.578125 9.230469 -16.375 L 9.230469 -4.683594 C 9.230469 -2.222656 7.316406 -0.136719 4.785156 -0.136719 C 2.257812 -0.136719 0.308594 -2.222656 0.308594 -4.683594 L 0.308594 -16.375 C 0.308594 -16.578125 0 -16.613281 0 -16.339844 L 0 -4.683594 C 0 -2.015625 2.050781 0.171875 4.785156 0.171875 Z M 4.785156 0.171875 "/></g></g></g><g fill="#ffffff" fill-opacity="1"><g transform="translate(149.258021, 34.498285)"><g><path d="M 4.820312 -16.679688 C 3.007812 -16.679688 1.09375 -15.929688 0.308594 -14.1875 L 0.308594 -16.40625 C 0.308594 -16.679688 0 -16.679688 0 -16.40625 L 0 7.65625 C 0 7.894531 0.308594 7.894531 0.308594 7.65625 L 0.308594 -2.53125 C 0.921875 -0.71875 3.078125 0.0351562 4.820312 0.101562 C 7.453125 0.101562 9.777344 -2.015625 9.777344 -4.648438 L 9.777344 -11.929688 C 9.777344 -14.492188 7.453125 -16.714844 4.820312 -16.679688 Z M 9.46875 -11.929688 L 9.46875 -4.648438 C 9.46875 -2.222656 7.246094 -0.207031 4.820312 -0.207031 C 2.460938 -0.238281 0.308594 -1.574219 0.308594 -4.035156 L 0.308594 -12.785156 C 0.308594 -15.144531 2.699219 -16.375 4.820312 -16.375 C 7.316406 -16.375 9.46875 -14.289062 9.46875 -11.929688 Z M 9.46875 -11.929688 "/></g></g></g><g fill="#ff0000" fill-opacity="1"><g transform="translate(164.492416, 34.498285)"><g><path d="M 1.742188 -3.453125 C 0.71875 -3.453125 0.0351562 -2.699219 0.0351562 -1.675781 C 0.0351562 -0.617188 0.71875 0.0703125 1.742188 0.0703125 C 2.804688 0.0703125 3.519531 -0.617188 3.519531 -1.675781 C 3.519531 -2.699219 2.804688 -3.453125 1.742188 -3.453125 Z M 1.742188 -3.453125 "/></g></g></g></svg>