<svg xmlns="http://www.w3.org/2000/svg" xmlns:xlink="http://www.w3.org/1999/xlink" width="240" zoomAndPan="magnify" viewBox="0 0 180 50.999998" height="68" preserveAspectRatio="xMidYMid meet" version="1.0"><defs><g/></defs><g fill="#ffffff" fill-opacity="1"><g transform="translate(9.322579, 34.124997)"><g><path d="M 5.402344 0.207031 C 6.253906 0.207031 8 -0.308594 8.339844 -1.742188 L 8.613281 0 L 10.835938 0 L 10.835938 -11.179688 C 10.835938 -14.1875 8.308594 -16.613281 5.402344 -16.613281 C 4.066406 -16.613281 2.460938 -15.863281 1.300781 -14.800781 L 2.804688 -12.511719 C 3.726562 -13.402344 4.71875 -13.8125 5.402344 -13.8125 C 6.871094 -13.8125 8.066406 -12.613281 8.066406 -11.179688 L 8.136719 -9.742188 C 7.761719 -10.835938 6.425781 -11.554688 5.332031 -11.554688 C 2.1875 -11.554688 0 -9.09375 0 -6.222656 L 0 -5.265625 C 0 -2.324219 2.460938 0.207031 5.402344 0.207031 Z M 2.769531 -5.265625 L 2.769531 -6.222656 C 2.769531 -7.691406 3.964844 -8.855469 5.402344 -8.855469 C 6.871094 -8.855469 8.066406 -7.898438 8.066406 -6.53125 L 8.066406 -4.855469 C 8.066406 -3.625 6.699219 -2.5625 5.402344 -2.5625 C 3.964844 -2.5625 2.769531 -3.792969 2.769531 -5.265625 Z M 2.769531 -5.265625 "/></g></g></g><g fill="#ffffff" fill-opacity="1"><g transform="translate(25.491835, 34.124997)"><g><path d="M 1.539062 -21.777344 C 0.648438 -21.777344 -0.136719 -21.09375 -0.136719 -20.03125 C -0.136719 -19.042969 0.648438 -18.324219 1.539062 -18.324219 C 2.460938 -18.324219 3.316406 -19.042969 3.316406 -20.03125 C 3.316406 -21.09375 2.460938 -21.777344 1.539062 -21.777344 Z M 2.941406 0 L 2.941406 -16.441406 L 0.207031 -16.441406 L 0.207031 0 Z M 2.941406 0 "/></g></g></g><g fill="#ffffff" fill-opacity="1"><g transform="translate(33.593751, 34.124997)"><g><path d="M 2.734375 0 L 2.734375 -11.210938 C 2.734375 -12.648438 3.898438 -13.878906 5.367188 -13.878906 C 6.871094 -13.878906 8.066406 -12.648438 8.066406 -11.210938 L 8.066406 0 L 10.800781 0 L 10.800781 -11.210938 C 10.800781 -14.769531 16.167969 -14.9375 16.136719 -11.210938 L 16.136719 0 L 18.871094 0 L 18.871094 -11.210938 C 18.871094 -14.253906 16.476562 -16.648438 13.539062 -16.648438 C 11.964844 -16.648438 10.289062 -16.03125 9.46875 -13.914062 C 8.613281 -16.03125 6.804688 -16.683594 5.433594 -16.648438 C 4.445312 -16.613281 3.179688 -16.167969 2.496094 -14.835938 L 2.152344 -16.441406 L 0 -16.441406 L 0 0 Z M 2.734375 0 "/></g></g></g><g fill="#ffffff" fill-opacity="1"><g transform="translate(58.787418, 34.124997)"><g><path d="M 9.742188 -10.664062 L 0 -10.664062 L 0 -9.707031 L 9.742188 -9.707031 Z M 9.742188 -10.664062 "/></g></g></g><g fill="#ffffff" fill-opacity="1"><g transform="translate(74.443922, 34.124997)"><g><path d="M 8.066406 -13.949219 L 8.886719 -14.496094 C 7.929688 -15.929688 6.394531 -16.648438 4.785156 -16.648438 C 2.257812 -16.648438 -0.238281 -14.871094 -0.207031 -11.792969 C -0.207031 -8.957031 1.878906 -7.929688 4.511719 -7.863281 C 6.496094 -7.792969 8.445312 -6.699219 8.445312 -4.375 C 8.445312 -1.949219 6.394531 -0.71875 4.375 -0.71875 C 2.871094 -0.71875 1.402344 -1.300781 0.617188 -2.5625 L -0.238281 -2.085938 C 0.683594 -0.546875 2.53125 0.238281 4.308594 0.238281 C 6.871094 0.238281 9.433594 -1.265625 9.402344 -4.375 C 9.402344 -7.316406 7.042969 -8.785156 4.546875 -8.855469 C 2.460938 -8.921875 0.71875 -9.675781 0.753906 -11.757812 C 0.753906 -12.886719 1.164062 -13.777344 1.777344 -14.359375 C 2.5625 -15.210938 3.65625 -15.691406 4.820312 -15.691406 C 6.015625 -15.691406 7.246094 -15.074219 8.066406 -13.949219 Z M 8.066406 -13.949219 "/></g></g></g><g fill="#ffffff" fill-opacity="1"><g transform="translate(88.664718, 34.124997)"><g><path d="M 6.90625 -8.820312 L 6.90625 -8.855469 L 4.546875 -1.058594 C 4.445312 -0.820312 4.171875 -0.890625 4.101562 -1.164062 L 1.300781 -16.375 L 0.273438 -16.375 C 1.164062 -11.554688 2.257812 -5.878906 3.144531 -1.058594 C 3.488281 0.480469 5.09375 0.273438 5.402344 -0.992188 L 7.792969 -8.71875 C 7.863281 -8.886719 8.035156 -8.886719 8.101562 -8.71875 C 8.820312 -6.289062 9.8125 -3.453125 10.425781 -0.992188 C 10.769531 0.375 12.410156 0.375 12.683594 -1.058594 C 13.605469 -5.8125 14.699219 -11.621094 15.621094 -16.375 L 14.5625 -16.375 C 13.707031 -11.726562 12.582031 -5.777344 11.726562 -1.128906 C 11.65625 -0.957031 11.453125 -0.855469 11.347656 -1.195312 L 8.992188 -8.855469 C 8.648438 -10.015625 7.214844 -10.085938 6.90625 -8.820312 Z M 6.90625 -8.820312 "/></g></g></g><g fill="#ffffff" fill-opacity="1"><g transform="translate(108.013065, 34.124997)"><g><path d="M 4.992188 0.238281 C 6.496094 0.207031 8.339844 -0.171875 9.058594 -1.675781 L 9.058594 0 L 10.015625 0 L 10.015625 -11.484375 C 10.015625 -14.289062 7.691406 -16.511719 4.992188 -16.511719 C 3.761719 -16.511719 2.597656 -16.066406 1.777344 -15.347656 L 2.359375 -14.496094 C 3.078125 -15.179688 4 -15.554688 4.992188 -15.554688 C 7.214844 -15.554688 9.058594 -13.707031 9.058594 -11.484375 L 9.058594 -9.128906 C 8.238281 -10.597656 6.460938 -11.179688 4.992188 -11.179688 C 2.257812 -11.179688 0 -8.886719 0 -6.152344 L 0 -4.855469 C 0 -2.121094 2.257812 0.238281 4.992188 0.238281 Z M 0.957031 -4.855469 L 0.957031 -6.152344 C 0.957031 -8.375 2.804688 -10.222656 4.992188 -10.222656 C 7.214844 -10.152344 9.058594 -8.957031 9.058594 -6.734375 L 9.058594 -3.929688 C 9.058594 -1.847656 7.007812 -0.785156 4.992188 -0.753906 C 2.804688 -0.753906 0.957031 -2.632812 0.957031 -4.855469 Z M 0.957031 -4.855469 "/></g></g></g><g fill="#ffffff" fill-opacity="1"><g transform="translate(123.464465, 34.124997)"><g><path d="M 0.957031 0 L 0.957031 -12.238281 C 0.957031 -14.359375 2.734375 -15.519531 4.582031 -15.519531 C 5.09375 -15.519531 5.707031 -15.382812 6.222656 -15.179688 L 6.597656 -16.066406 C 5.980469 -16.375 5.332031 -16.476562 4.648438 -16.476562 C 3.214844 -16.476562 1.847656 -16.03125 0.957031 -14.664062 L 0.957031 -16.273438 L 0 -16.273438 L 0 0 Z M 0.957031 0 "/></g></g></g><g fill="#ffffff" fill-opacity="1"><g transform="translate(134.369436, 34.124997)"><g><path d="M 4.921875 0.171875 C 7.761719 0.171875 9.84375 -2.121094 9.84375 -4.820312 L 9.84375 -16.339844 L 8.886719 -16.339844 L 8.886719 -4.820312 C 8.886719 -2.632812 7.179688 -0.785156 4.921875 -0.785156 C 2.699219 -0.785156 0.957031 -2.632812 0.957031 -4.820312 L 0.957031 -16.339844 L 0 -16.339844 L 0 -4.820312 C 0 -2.121094 2.121094 0.171875 4.921875 0.171875 Z M 4.921875 0.171875 "/></g></g></g><g fill="#ffffff" fill-opacity="1"><g transform="translate(149.581551, 34.124997)"><g><path d="M 4.957031 -16.683594 C 3.351562 -16.683594 1.914062 -16.136719 0.957031 -14.769531 L 0.957031 -16.375 L 0 -16.375 L 0 7.246094 L 0.957031 7.246094 L 0.957031 -1.949219 C 1.8125 -0.273438 3.554688 0.136719 4.957031 0.101562 C 7.65625 0.101562 10.050781 -2.085938 10.050781 -4.785156 L 10.050781 -11.792969 C 10.050781 -14.425781 7.65625 -16.683594 4.957031 -16.683594 Z M 9.09375 -11.792969 L 9.09375 -4.785156 C 9.09375 -2.632812 7.144531 -0.855469 4.957031 -0.855469 C 2.871094 -0.890625 0.957031 -2.085938 0.957031 -4.203125 L 0.957031 -12.613281 C 0.957031 -14.664062 3.109375 -15.757812 4.957031 -15.757812 C 7.214844 -15.757812 9.09375 -13.914062 9.09375 -11.792969 Z M 9.09375 -11.792969 "/></g></g></g><g fill="#ff0000" fill-opacity="1"><g transform="translate(165.064757, 34.124997)"><g><path d="M 1.742188 -3.453125 C 0.71875 -3.453125 0.0351562 -2.699219 0.0351562 -1.675781 C 0.0351562 -0.617188 0.71875 0.0703125 1.742188 0.0703125 C 2.804688 0.0703125 3.519531 -0.617188 3.519531 -1.675781 C 3.519531 -2.699219 2.804688 -3.453125 1.742188 -3.453125 Z M 1.742188 -3.453125 "/></g></g></g></svg>